<?xml version="1.0" encoding="UTF-8"?>
<svg width="400" height="400" viewBox="0 0 400 400" xmlns="http://www.w3.org/2000/svg">
    <!-- Background -->
    <rect width="400" height="400" fill="#90c49b" opacity="0.2"/>
    
    <!-- Globe lines -->
    <path d="M100 220 Q200 190 300 220" 
          fill="none" 
          stroke="#4CAF50" 
          stroke-width="20" 
          opacity="0.8"/>
    <path d="M100 240 Q200 210 300 240" 
          fill="none" 
          stroke="#4CAF50" 
          stroke-width="20" 
          opacity="0.8"/>
    <path d="M100 260 Q200 230 300 260" 
          fill="none" 
          stroke="#4CAF50" 
          stroke-width="20" 
          opacity="0.8"/>
    
    <!-- Central stem -->
    <path d="M200 140 L200 200" 
          stroke="#4CAF50" 
          stroke-width="8"/>
    
    <!-- Main leaf cluster -->
    <path d="M200 120 
             L180 100 L200 80 L220 100 
             L200 120" 
          fill="#4CAF50"/>
    <path d="M180 140 
             C160 120 180 100 200 120 
             C220 100 240 120 220 140 
             L180 140" 
          fill="#4CAF50"/>
    
    <!-- Hands -->
    <path d="M100 220 Q140 180 180 200" 
          stroke="#e6b89c" 
          stroke-width="18" 
          fill="none" 
          stroke-linecap="round"/>
    <path d="M300 220 Q260 180 220 200" 
          stroke="#e6b89c" 
          stroke-width="18" 
          fill="none" 
          stroke-linecap="round"/>
    
    <!-- Text -->
    <text x="200" y="340" 
          text-anchor="middle" 
          font-family="Arial Black, sans-serif" 
          font-size="32" 
          fill="#8B4513" 
          font-weight="bold">
        AGRIPULSE-360
    </text>
</svg>
